<svg xmlns="http://www.w3.org/2000/svg" width="122" height="36" viewBox="0 0 122 36" fill="none">
  <g clip-path="url(#clip0_6_11110)">
    <path d="M120.651 31.7488C120.651 33.6536 119.108 35.1964 117.2 35.1964H4.25646C2.349 35.1964 0.800781 33.6536 0.800781 31.7488V4.25489C0.800781 2.35103 2.34908 0.802734 4.25646 0.802734H117.199C119.108 0.802734 120.65 2.35103 120.65 4.25489L120.651 31.7488Z" fill="white"/>
    <path d="M117.201 35.9989H4.25691C1.91016 35.9989 0 34.0932 0 31.7492V4.25616C0 1.91032 1.91016 0.00195312 4.25691 0.00195312H117.2C119.544 0.00195312 121.456 1.91032 121.456 4.25616V31.7492C121.458 34.0932 119.545 35.9989 117.201 35.9989Z" fill="white"/>
    <path d="M120.651 31.7488C120.651 33.6536 119.108 35.1964 117.2 35.1964H4.25646C2.349 35.1964 0.800781 33.6536 0.800781 31.7488V4.25489C0.800781 2.35103 2.34908 0.802734 4.25646 0.802734H117.199C119.108 0.802734 120.65 2.35103 120.65 4.25489L120.651 31.7488Z" fill="black"/>
    <path d="M27.121 17.8103C27.0949 14.909 29.4965 13.4976 29.6063 13.4318C28.2462 11.4488 26.1381 11.1778 25.3972 11.1562C23.6266 10.9699 21.909 12.2157 21.0071 12.2157C20.0871 12.2157 18.6981 11.1742 17.2012 11.2048C15.2748 11.2345 13.4727 12.3498 12.4843 14.0818C10.4445 17.6131 11.9658 22.8026 13.9201 25.6571C14.8976 27.0559 16.04 28.6159 17.5351 28.561C18.9979 28.5016 19.5443 27.6293 21.3095 27.6293C23.0585 27.6293 23.5717 28.561 25.0965 28.5259C26.6665 28.5016 27.6548 27.1216 28.5982 25.7111C29.7279 24.1097 30.1815 22.5308 30.1996 22.4498C30.1635 22.4372 27.1516 21.2867 27.121 17.8103ZM24.2404 9.27845C25.0271 8.29457 25.5655 6.95601 25.416 5.59766C24.2772 5.64807 22.8533 6.38531 22.0331 7.34759C21.3076 8.19555 20.6595 9.58541 20.8269 10.8925C22.1061 10.9879 23.4195 10.247 24.2404 9.27845Z" fill="white"/>
    <path d="M117.201 0.00195312H56.7051L80.4004 35.9989H117.201C119.545 35.9989 121.458 34.0932 121.458 31.7465V4.25616C121.459 1.91032 119.546 0.00195312 117.201 0.00195312Z" fill="url(#paint0_linear_6_11110)"/>
    <path d="M48.3068 28.3598H46.2625L45.1427 24.841H41.2503L40.1836 28.3598H38.1934L42.0506 16.3803H44.4324L48.3068 28.3598ZM44.8052 23.3647L43.7925 20.2366C43.6854 19.9171 43.4837 19.1645 43.1884 17.9799H43.1525C43.0337 18.4894 42.8437 19.242 42.5836 20.2366L41.588 23.3647H44.8052ZM58.207 23.9345C58.207 25.4036 57.8082 26.5648 57.0096 27.4174C56.295 28.1761 55.4065 28.5552 54.3469 28.5552C53.2028 28.5552 52.3801 28.1473 51.8805 27.3301V31.8624H49.9613V22.5609C49.9613 21.6381 49.9371 20.6921 49.8903 19.7217H51.5781L51.6852 21.0909H51.7211C52.3612 20.0593 53.3324 19.5434 54.6359 19.5434C55.6549 19.5434 56.5056 19.9458 57.1861 20.7515C57.8657 21.559 58.207 22.6194 58.207 23.9345ZM56.2517 24.0048C56.2517 23.164 56.0627 22.4709 55.6828 21.9245C55.2678 21.3565 54.7106 21.0721 54.0121 21.0721C53.5386 21.0721 53.1083 21.2304 52.7239 21.5428C52.3387 21.8578 52.0866 22.2692 51.9688 22.7787C51.9094 23.0164 51.8796 23.2099 51.8796 23.363V24.8041C51.8796 25.4315 52.0723 25.9618 52.4576 26.3957C52.8428 26.8278 53.3433 27.0446 53.959 27.0446C54.682 27.0446 55.2446 26.7647 55.6469 26.2093C56.0501 25.6521 56.2517 24.9175 56.2517 24.0048ZM68.1421 23.9345C68.1421 25.4036 67.7433 26.5648 66.9448 27.4174C66.2292 28.1761 65.3416 28.5552 64.2812 28.5552C63.1371 28.5552 62.3144 28.1473 61.8148 27.3301V31.8624H59.8956V22.5609C59.8956 21.6381 59.8713 20.6921 59.8245 19.7217H61.5123L61.6194 21.0909H61.6554C62.2946 20.0593 63.2658 19.5434 64.5701 19.5434C65.5882 19.5434 66.4389 19.9458 67.1213 20.7515C67.8001 21.559 68.1421 22.6194 68.1421 23.9345ZM66.186 24.0048C66.186 23.164 65.9961 22.4709 65.6162 21.9245C65.2012 21.3565 64.6458 21.0721 63.9473 21.0721C63.4738 21.0721 63.0435 21.2304 62.6573 21.5428C62.2721 21.8578 62.021 22.2692 61.903 22.7787C61.8445 23.0164 61.813 23.2099 61.813 23.363V24.8041C61.813 25.4315 62.0065 25.9618 62.39 26.3957C62.7753 26.8269 63.2757 27.0446 63.8933 27.0446C64.6169 27.0446 65.1795 26.7647 65.5811 26.2093C65.9844 25.6521 66.186 24.9175 66.186 24.0048ZM79.2502 24.9994C79.2502 26.0193 78.8937 26.8484 78.1854 27.4884C77.4057 28.1869 76.3175 28.5371 74.9222 28.5371C73.6331 28.5371 72.5997 28.2887 71.8202 27.7909L72.264 26.1913C73.1056 26.69 74.0301 26.9384 75.0365 26.9384C75.7602 26.9384 76.3228 26.7746 76.7243 26.4496C77.1266 26.1238 77.3301 25.6881 77.3301 25.1444C77.3301 24.6574 77.1618 24.2496 76.8314 23.9175C76.4993 23.5862 75.9502 23.2775 75.1788 22.9939C73.0813 22.2117 72.0317 21.0676 72.0317 19.5625C72.0317 18.5795 72.4026 17.7747 73.1426 17.1455C73.8825 16.5172 74.8637 16.2031 76.0844 16.2031C77.1745 16.2031 78.0828 16.3931 78.8038 16.772L78.3222 18.3365C77.6435 17.9692 76.8773 17.7855 76.0204 17.7855C75.3435 17.7855 74.8124 17.9521 74.4325 18.2833C74.1129 18.5795 73.9509 18.9405 73.9509 19.3689C73.9509 19.8416 74.1355 20.2341 74.5027 20.5419C74.8214 20.8254 75.4029 21.1343 76.2436 21.4655C77.2752 21.8814 78.0331 22.3657 78.5184 22.922C79.0071 23.4782 79.2502 24.1722 79.2502 24.9994ZM85.6118 21.162H83.4963V25.3559C83.4963 26.4226 83.869 26.9546 84.6162 26.9546C84.9591 26.9546 85.2436 26.9257 85.4687 26.8655L85.5217 28.3229C85.1437 28.4643 84.6458 28.5353 84.0292 28.5353C83.2713 28.5353 82.679 28.304 82.2514 27.8413C81.8256 27.3786 81.6114 26.6035 81.6114 25.5125V21.1584H80.3511V19.7181H81.6114V18.1365L83.4963 17.5676V19.7181H85.6118V21.162ZM95.1373 23.9696C95.1373 25.2973 94.7575 26.3874 93.9995 27.24C93.2065 28.1176 92.1515 28.5551 90.8363 28.5551C89.5671 28.5551 88.558 28.1347 87.8054 27.2949C87.0529 26.4531 86.6766 25.3928 86.6766 24.1137C86.6766 22.775 87.0655 21.6787 87.8405 20.8262C88.6174 19.9729 89.6635 19.5463 90.9785 19.5463C92.246 19.5463 93.2641 19.9675 94.0346 20.8082C94.771 21.6238 95.1373 22.677 95.1373 23.9696ZM93.148 24.0138C93.148 23.2224 92.977 22.5437 92.634 21.9757C92.2316 21.2898 91.6555 20.9469 90.9092 20.9469C90.1405 20.9469 89.5509 21.2898 89.1494 21.9757C88.8055 22.5437 88.6345 23.2341 88.6345 24.0497C88.6345 24.8419 88.8055 25.5224 89.1494 26.0886C89.5644 26.7746 90.1432 27.1175 90.893 27.1175C91.6267 27.1175 92.2019 26.7674 92.6178 26.0715C92.9707 25.49 93.148 24.8068 93.148 24.0138ZM101.378 21.4096C101.188 21.3744 100.985 21.3564 100.773 21.3564C100.098 21.3564 99.5762 21.6103 99.209 22.1215C98.8903 22.5716 98.73 23.1405 98.73 23.8273V28.3597H96.8108V22.4421C96.8108 21.4474 96.7919 20.54 96.755 19.7226H98.4267L98.4969 21.3753H98.55C98.7535 20.8073 99.0721 20.3491 99.5096 20.0061C99.9372 19.6974 100.399 19.5434 100.897 19.5434C101.074 19.5434 101.234 19.556 101.377 19.5786L101.378 21.4096ZM109.961 23.6321C109.961 23.9759 109.939 24.2657 109.891 24.5025H104.134C104.155 25.3559 104.434 26.0094 104.969 26.4595C105.454 26.8611 106.082 27.0626 106.852 27.0626C107.705 27.0626 108.482 26.9276 109.182 26.6549L109.482 27.9862C108.665 28.3427 107.7 28.52 106.587 28.52C105.247 28.52 104.196 28.1257 103.431 27.339C102.667 26.5513 102.285 25.4927 102.285 24.1668C102.285 22.8651 102.64 21.7804 103.352 20.9154C104.098 19.9918 105.105 19.5299 106.372 19.5299C107.617 19.5299 108.56 19.9917 109.2 20.9154C109.707 21.6472 109.961 22.5546 109.961 23.6321ZM108.131 23.1343C108.145 22.5645 108.019 22.0739 107.759 21.6589C107.426 21.1242 106.915 20.8578 106.23 20.8578C105.603 20.8578 105.091 21.1179 104.703 21.64C104.383 22.055 104.193 22.5537 104.135 23.1325L108.131 23.1343Z" fill="white"/>
    <path d="M43.8799 12.0936H42.8744L42.3244 10.3643H40.4115L39.8867 12.0936H38.9082L40.804 6.20555H41.9742L43.8799 12.0936ZM42.1587 9.63881L41.6609 8.10131C41.6087 7.94378 41.5124 7.57741 41.3639 6.9923H41.3459C41.2847 7.24525 41.1973 7.61252 41.0659 8.10131L40.5771 9.63881H42.1587ZM48.6201 7.84836L47.0124 12.0936H46.0951L44.5397 7.84836H45.5533L46.2788 10.0934C46.4012 10.4688 46.5056 10.827 46.584 11.1673H46.6101C46.6804 10.8621 46.7847 10.5039 46.9152 10.0934L47.6318 7.84836H48.6201ZM52.0426 12.0936L51.9724 11.6047H51.9462C51.6582 11.9981 51.2387 12.1898 50.7058 12.1898C49.946 12.1898 49.4041 11.6569 49.4041 10.9404C49.4041 9.89258 50.3124 9.35068 51.885 9.35068V9.27236C51.885 8.71336 51.5879 8.4334 51.0028 8.4334C50.5833 8.4334 50.2161 8.53872 49.8938 8.74846L49.702 8.12824C50.0954 7.8834 50.5842 7.76097 51.1612 7.76097C52.2702 7.76097 52.8301 8.34609 52.8301 9.51721V11.0808C52.8301 11.5093 52.8481 11.8415 52.8913 12.0944L52.0426 12.0936ZM51.9112 9.97907C50.8626 9.97907 50.3386 10.2329 50.3386 10.8351C50.3386 11.2807 50.6095 11.4986 50.9849 11.4986C51.4655 11.4986 51.9112 11.1322 51.9112 10.6344V9.97907ZM54.9312 7.14893C54.6171 7.14893 54.3722 6.90408 54.3722 6.58092C54.3722 6.25776 54.6253 6.02191 54.9493 6.02191C55.2724 6.02191 55.5344 6.25776 55.5254 6.58092C55.5254 6.92209 55.2815 7.14893 54.9312 7.14893ZM55.4209 12.0936H54.4776V7.84836H55.4209V12.0936ZM58.0404 12.0936H57.0971V5.90039H58.0404V12.0936ZM62.0498 12.0936L61.9795 11.6047H61.9535C61.6654 11.9981 61.2459 12.1898 60.713 12.1898C59.9533 12.1898 59.4114 11.6569 59.4114 10.9404C59.4114 9.89258 60.3196 9.35068 61.8922 9.35068V9.27236C61.8922 8.71336 61.5951 8.4334 61.01 8.4334C60.5905 8.4334 60.2233 8.53872 59.901 8.74846L59.7085 8.12734C60.1018 7.8825 60.5906 7.76007 61.1676 7.76007C62.2766 7.76007 62.8365 8.34519 62.8365 9.51631V11.0799C62.8365 11.5084 62.8555 11.8406 62.8969 12.0935H62.0498V12.0936ZM61.9184 9.97907C60.8697 9.97907 60.3458 10.2329 60.3458 10.8351C60.3458 11.2807 60.6167 11.4986 60.992 11.4986C61.4727 11.4986 61.9184 11.1322 61.9184 10.6344V9.97907ZM66.6588 12.1899C66.0565 12.1899 65.6118 11.9361 65.3237 11.4383H65.3048L65.2508 12.0936H64.447C64.4731 11.7533 64.4821 11.368 64.4821 10.9495V5.90039H65.4263V8.46948H65.4443C65.7242 7.99779 66.1772 7.76195 66.7982 7.76195C67.8208 7.76195 68.5373 8.63602 68.5373 9.91066C68.5373 11.2285 67.7416 12.1899 66.6588 12.1899ZM66.4669 8.50279C65.9241 8.50279 65.4273 8.97448 65.4273 9.62981V10.3724C65.4273 10.9576 65.8737 11.4383 66.4508 11.4383C67.1574 11.4383 67.5778 10.8621 67.5778 9.94487C67.5769 9.0888 67.1394 8.50279 66.4669 8.50279ZM70.8751 12.0936H69.9327V5.90039H70.8751V12.0936ZM76.0106 10.1978H73.1787C73.1976 11.0017 73.7286 11.4554 74.5154 11.4554C74.9348 11.4554 75.3192 11.3851 75.6595 11.2546L75.8062 11.9099C75.4047 12.0846 74.933 12.1719 74.383 12.1719C73.0544 12.1719 72.2685 11.3329 72.2685 10.0322C72.2685 8.73053 73.0734 7.75205 74.2768 7.75205C75.3598 7.75205 76.0421 8.5559 76.0421 9.77023C76.0457 9.93587 76.0376 10.0844 76.0106 10.1978ZM75.1455 9.52539C75.1455 8.87006 74.8132 8.40737 74.2102 8.40737C73.6682 8.40737 73.2416 8.87906 73.1786 9.52539H75.1455ZM81.7284 12.1899C80.488 12.1899 79.6842 11.2636 79.6842 10.0061C79.6842 8.69543 80.5051 7.76105 81.7995 7.76105C83.021 7.76105 83.8438 8.64322 83.8438 9.93677C83.8439 11.2636 82.9959 12.1899 81.7284 12.1899ZM81.7644 8.45058C81.083 8.45058 80.6465 9.0879 80.6465 9.97907C80.6465 10.8531 81.0921 11.4905 81.7555 11.4905C82.4189 11.4905 82.8635 10.809 82.8635 9.96107C82.8644 9.0969 82.4279 8.45058 81.7644 8.45058ZM88.9154 12.0936H87.973V9.65591C87.973 8.90517 87.6849 8.5289 87.1169 8.5289C86.5579 8.5289 86.1727 9.00959 86.1727 9.5686V12.0936H85.2302V9.0618C85.2302 8.68643 85.2203 8.28405 85.1951 7.84746H86.025L86.0691 8.50279H86.0952C86.3472 8.0491 86.864 7.76015 87.4401 7.76015C88.3304 7.76015 88.9155 8.44158 88.9155 9.55059V12.0936H88.9154ZM95.0879 8.5559H94.05V10.6173C94.05 11.1421 94.2328 11.404 94.5991 11.404C94.7656 11.404 94.906 11.386 95.0186 11.3599L95.0447 12.0765C94.861 12.1468 94.6153 12.1818 94.3119 12.1818C93.5684 12.1818 93.1246 11.7713 93.1246 10.6965V8.5559H92.5053V7.84836H93.1246V7.07062L94.05 6.79066V7.84746H95.0879V8.5559ZM100.084 12.0936H99.1395V9.67392C99.1395 8.91417 98.8515 8.5298 98.2836 8.5298C97.7947 8.5298 97.3411 8.86196 97.3411 9.53439V12.0936H96.3968V5.90039H97.3411V8.45058H97.3591C97.6561 7.98789 98.0846 7.76015 98.6346 7.76015C99.5339 7.76015 100.084 8.45868 100.084 9.5686V12.0936ZM104.904 10.1978H102.073C102.091 11.0017 102.622 11.4554 103.409 11.4554C103.83 11.4554 104.213 11.3851 104.553 11.2546L104.701 11.9099C104.299 12.0846 103.827 12.1719 103.277 12.1719C101.948 12.1719 101.162 11.3329 101.162 10.0322C101.162 8.73053 101.967 7.75205 103.171 7.75205C104.254 7.75205 104.936 8.5559 104.936 9.77023C104.939 9.93587 104.93 10.0844 104.904 10.1978ZM104.039 9.52539C104.039 8.87006 103.708 8.40737 103.105 8.40737C102.562 8.40737 102.135 8.87906 102.073 9.52539H104.039Z" fill="white"/>
  </g>
  <defs>
    <linearGradient id="paint0_linear_6_11110" x1="89.0822" y1="36.0967" x2="89.0822" y2="3.64915" gradientUnits="userSpaceOnUse">
      <stop stop-color="#1A1A1A" stop-opacity="0.1"/>
      <stop offset="0.123" stop-color="#212121" stop-opacity="0.151"/>
      <stop offset="0.308" stop-color="#353535" stop-opacity="0.227"/>
      <stop offset="0.532" stop-color="#575757" stop-opacity="0.318"/>
      <stop offset="0.783" stop-color="#858585" stop-opacity="0.421"/>
      <stop offset="1" stop-color="#B3B3B3" stop-opacity="0.51"/>
    </linearGradient>
    <clipPath id="clip0_6_11110">
      <rect width="121.457" height="36" fill="white"/>
    </clipPath>
  </defs>
</svg>