<svg xmlns="http://www.w3.org/2000/svg" width="122" height="36" viewBox="0 0 122 36" fill="none">
  <g clip-path="url(#clip0_6_11120)">
    <path d="M120.651 31.7488C120.651 33.6536 119.108 35.1964 117.2 35.1964H4.25646C2.349 35.1964 0.800781 33.6536 0.800781 31.7488V4.25489C0.800781 2.35103 2.34908 0.802734 4.25646 0.802734H117.199C119.108 0.802734 120.65 2.35103 120.65 4.25489L120.651 31.7488Z" fill="white"/>
    <path d="M117.201 35.9989H4.25691C1.91016 35.9989 0 34.0932 0 31.7492V4.25616C0 1.91032 1.91016 0.00195312 4.25691 0.00195312H117.2C119.544 0.00195312 121.456 1.91032 121.456 4.25616V31.7492C121.458 34.0932 119.545 35.9989 117.201 35.9989Z" fill="white"/>
    <path d="M120.651 31.7488C120.651 33.6536 119.108 35.1964 117.2 35.1964H4.25646C2.349 35.1964 0.800781 33.6536 0.800781 31.7488V4.25489C0.800781 2.35103 2.34908 0.802734 4.25646 0.802734H117.199C119.108 0.802734 120.65 2.35103 120.65 4.25489L120.651 31.7488Z" fill="black"/>
    <path d="M117.201 0.00195312H56.7051L80.4004 35.9989H117.201C119.545 35.9989 121.458 34.0932 121.458 31.7465V4.25616C121.459 1.91032 119.546 0.00195312 117.201 0.00195312Z" fill="url(#paint0_linear_6_11120)"/>
    <path fill-rule="evenodd" clip-rule="evenodd" d="M11.2153 6.83944C10.9521 7.12231 10.8008 7.55769 10.8008 8.12343V28.2467C10.8008 28.8125 10.9521 29.2478 11.2251 29.5209L11.2964 29.5811L22.572 18.3056V18.0522L11.2866 6.77917L11.2153 6.83944Z" fill="url(#paint1_linear_6_11120)"/>
    <path fill-rule="evenodd" clip-rule="evenodd" d="M26.3235 22.0786L22.5625 18.3164V18.0532L26.3247 14.291L26.4059 14.3414L30.8556 16.8701C32.1297 17.5883 32.1297 18.7715 30.8556 19.4996L26.4059 22.0282C26.4046 22.0282 26.3235 22.0786 26.3235 22.0786Z" fill="url(#paint2_linear_6_11120)"/>
    <path fill-rule="evenodd" clip-rule="evenodd" d="M26.4039 22.0289L22.5617 18.1855L11.2148 29.5324C11.6293 29.9776 12.3267 30.028 13.1064 29.5927L26.4039 22.0289Z" fill="url(#paint3_linear_6_11120)"/>
    <path fill-rule="evenodd" clip-rule="evenodd" d="M26.4039 14.3416L13.1064 6.78773C12.3279 6.34251 11.6293 6.40277 11.2148 6.84799L22.5605 18.1838L26.4039 14.3416Z" fill="url(#paint4_linear_6_11120)"/>
    <path opacity="0.12" fill-rule="evenodd" clip-rule="evenodd" d="M30.8532 19.3687L26.3125 21.9477L26.3937 22.0289L30.8434 19.5003C31.4805 19.1362 31.7941 18.6615 31.7941 18.1855C31.7535 18.6209 31.43 19.0354 30.8532 19.3687Z" fill="black"/>
    <path opacity="0.25" fill-rule="evenodd" clip-rule="evenodd" d="M13.1068 6.92066L30.854 17.0032C31.4308 17.3267 31.7542 17.751 31.8047 18.1864C31.8047 17.7116 31.491 17.2357 30.854 16.8716L13.1068 6.78907C11.8326 6.06098 10.8008 6.66731 10.8008 8.12349V8.25508C10.8008 6.79891 11.8326 6.20241 13.1068 6.92066Z" fill="white"/>
    <path opacity="0.2" fill-rule="evenodd" clip-rule="evenodd" d="M26.3226 21.9492L13.1162 29.4527C12.3782 29.877 11.7203 29.8475 11.2959 29.4626L11.2246 29.5339L11.2959 29.5942C11.7203 29.9779 12.3782 30.0086 13.1162 29.5843L26.4136 22.0304L26.3226 21.9492Z" fill="black"/>
    <path fill-rule="evenodd" clip-rule="evenodd" d="M36.1353 17.5473C36.1353 14.3238 38.8447 11.6992 42.0682 11.6992C43.8503 11.6992 45.1183 12.399 46.0752 13.3104L44.9486 14.4369C44.2648 13.7949 43.3374 13.2968 42.067 13.2968C39.713 13.2968 37.8731 15.1921 37.8731 17.5461C37.8731 19.9001 39.713 21.7978 42.0658 21.7978C43.592 21.7978 44.4603 21.1853 45.0175 20.6269C45.4737 20.1706 45.7726 19.5151 45.8882 18.6161H42.0682V17.0221H47.4452C47.5018 17.3075 47.5313 17.6494 47.5313 18.0196C47.5313 19.2162 47.203 20.7007 46.1465 21.7572C45.1183 22.8272 43.8073 23.3978 42.067 23.3978C38.8422 23.3978 36.1328 20.7757 36.1328 17.5498L36.1353 17.5473ZM51.8777 15.8648C49.7955 15.8648 48.0959 17.4489 48.0959 19.6295C48.0959 21.799 49.7943 23.3941 51.8777 23.3941C53.9611 23.3941 55.6572 21.7965 55.6572 19.6283C55.6572 17.4477 53.9599 15.8636 51.8777 15.8648ZM51.8777 21.9134C50.7376 21.9134 49.7525 20.9725 49.7525 19.6307C49.7525 18.2754 50.7364 17.3481 51.8777 17.3481C53.0178 17.3481 54.0017 18.2742 54.0017 19.6307C54.0017 20.9713 53.0191 21.9134 51.8777 21.9134ZM60.1241 15.8648C58.0419 15.8648 56.3447 17.4489 56.3447 19.6295C56.3447 21.799 58.0419 23.3941 60.1241 23.3941C62.2063 23.3941 63.9035 21.7965 63.9035 19.6283C63.9035 17.4477 62.2075 15.8636 60.1241 15.8648ZM60.1241 21.9134C58.984 21.9134 57.9988 20.9725 57.9988 19.6307C57.9988 18.2754 58.9827 17.3481 60.1241 17.3481C61.2642 17.3481 62.2493 18.2742 62.2493 19.6307C62.2493 20.9713 61.2642 21.9134 60.1241 21.9134ZM70.2448 16.0936V16.7061H70.1882C69.818 16.2621 69.1047 15.8636 68.2068 15.8636C66.3239 15.8636 64.5959 17.519 64.5959 19.6455C64.5959 21.7547 66.3227 23.3966 68.2068 23.3966C69.1047 23.3966 69.818 22.9981 70.1882 22.5418H70.2448V23.083C70.2448 24.5232 69.4748 25.2943 68.2339 25.2943C67.2205 25.2943 66.5932 24.5662 66.3362 23.955L64.8948 24.5539C65.308 25.5513 66.4075 26.7788 68.2327 26.7788C70.171 26.7788 71.8116 25.6362 71.8116 22.8555V16.0923L70.2448 16.0936ZM68.3483 21.9134C67.2082 21.9134 66.2501 20.9565 66.2501 19.6455C66.2501 18.3197 67.207 17.3493 68.3483 17.3493C69.4748 17.3493 70.3591 18.3184 70.3591 19.6455C70.3604 20.9565 69.4761 21.9134 68.3483 21.9134ZM72.9542 12.0989H74.6096V23.1678H72.9542V12.0989ZM79.1466 21.9134C78.3054 21.9134 77.7052 21.5272 77.3227 20.7733L82.3578 18.6886L82.1844 18.2606C81.872 17.4206 80.9152 15.8648 78.9609 15.8648C77.0214 15.8648 75.409 17.3911 75.409 19.6307C75.409 21.74 77.0066 23.3954 79.1466 23.3954C80.8734 23.3954 81.872 22.3414 82.2853 21.7264L81.0013 20.8717C80.5721 21.5001 79.9866 21.9146 79.1466 21.9134ZM79.0175 17.3198C79.673 17.3198 80.2289 17.6481 80.4146 18.118L77.0472 19.5163C77.0054 18.0614 78.175 17.3198 79.0175 17.3198ZM89.6215 12.0989H85.6638V23.1678H87.3155V18.9752H89.6227C91.454 18.9752 93.2546 17.6494 93.2546 15.5364C93.2546 13.4272 91.4553 12.1002 89.6252 12.1002L89.6215 12.0989ZM89.6645 17.4341H87.3155V13.6387H89.6645C90.8993 13.6387 91.6028 14.6632 91.6028 15.5364C91.6028 16.3949 90.8993 17.4341 89.6645 17.4341ZM95.8164 23.1678V12.0989H94.1647V23.1678H95.8164ZM103.236 23.1482V18.9051C103.236 16.9397 101.768 15.8439 99.8726 15.8439C98.6783 15.8439 97.4398 16.3715 96.927 17.5387L98.393 18.1499C98.7066 17.5387 99.2896 17.3382 99.9033 17.3382C100.757 17.3382 101.625 17.8511 101.639 18.7636V18.878C101.34 18.7071 100.7 18.45 99.9156 18.45C98.3352 18.45 96.7265 19.3183 96.7265 20.9418C96.7265 22.4238 98.0228 23.3769 99.4753 23.3769C100.587 23.3769 101.198 22.8788 101.582 22.2959H101.639V23.1506H103.235L103.236 23.1482ZM99.6758 21.9109C99.1346 21.9109 98.3795 21.6403 98.3795 20.9725C98.3795 20.1177 99.3203 19.7881 100.132 19.7881C100.859 19.7881 101.2 19.9443 101.642 20.1583C101.516 21.1521 100.676 21.8986 99.6758 21.9109ZM109.045 16.0862L107.151 20.884H107.094L105.129 16.0862H103.349L106.296 22.794L104.615 26.5242H106.338L110.88 16.0862H109.045Z" fill="white"/>
  </g>
  <defs>
    <linearGradient id="paint0_linear_6_11120" x1="89.0822" y1="36.0967" x2="89.0822" y2="3.64915" gradientUnits="userSpaceOnUse">
      <stop stop-color="#1A1A1A" stop-opacity="0.1"/>
      <stop offset="0.123" stop-color="#212121" stop-opacity="0.151"/>
      <stop offset="0.308" stop-color="#353535" stop-opacity="0.227"/>
      <stop offset="0.532" stop-color="#575757" stop-opacity="0.318"/>
      <stop offset="0.783" stop-color="#858585" stop-opacity="0.421"/>
      <stop offset="1" stop-color="#B3B3B3" stop-opacity="0.51"/>
    </linearGradient>
    <linearGradient id="paint1_linear_6_11120" x1="21.5595" y1="7.90713" x2="3.49801" y2="12.7196" gradientUnits="userSpaceOnUse">
      <stop stop-color="#00A0FF"/>
      <stop offset="0.007" stop-color="#00A1FF"/>
      <stop offset="0.26" stop-color="#00BEFF"/>
      <stop offset="0.512" stop-color="#00D2FF"/>
      <stop offset="0.76" stop-color="#00DFFF"/>
      <stop offset="1" stop-color="#00E3FF"/>
    </linearGradient>
    <linearGradient id="paint2_linear_6_11120" x1="32.5136" y1="18.1854" x2="10.4915" y2="18.1854" gradientUnits="userSpaceOnUse">
      <stop stop-color="#FFE000"/>
      <stop offset="0.409" stop-color="#FFBD00"/>
      <stop offset="0.775" stop-color="#FFA500"/>
      <stop offset="1" stop-color="#FF9C00"/>
    </linearGradient>
    <linearGradient id="paint3_linear_6_11120" x1="24.3146" y1="20.2764" x2="9.81484" y2="44.6805" gradientUnits="userSpaceOnUse">
      <stop stop-color="#FF3A44"/>
      <stop offset="1" stop-color="#C31162"/>
    </linearGradient>
    <linearGradient id="paint4_linear_6_11120" x1="8.35855" y1="0.144159" x2="14.8274" y2="11.0434" gradientUnits="userSpaceOnUse">
      <stop stop-color="#32A071"/>
      <stop offset="0.069" stop-color="#2DA771"/>
      <stop offset="0.476" stop-color="#15CF74"/>
      <stop offset="0.801" stop-color="#06E775"/>
      <stop offset="1" stop-color="#00F076"/>
    </linearGradient>
    <clipPath id="clip0_6_11120">
      <rect width="121.457" height="36" fill="white"/>
    </clipPath>
  </defs>
</svg>