<svg width="14" height="18" viewBox="0 0 14 18" fill="none" xmlns="http://www.w3.org/2000/svg">
<path d="M13.2207 10.4975L2.7207 17.697C2.45722 17.878 2.15087 17.982 1.83439 17.9979C1.51791 18.0137 1.20318 17.9409 0.92381 17.7871C0.644443 17.6334 0.410935 17.4044 0.248227 17.1248C0.0855191 16.8452 -0.000278122 16.5253 6.7731e-07 16.1994V1.80057C-0.000278122 1.47468 0.0855191 1.15484 0.248227 0.875198C0.410935 0.59556 0.644443 0.36663 0.92381 0.21286C1.20318 0.0590898 1.51791 -0.0137434 1.83439 0.00213786C2.15087 0.0180192 2.45722 0.122019 2.7207 0.30303L13.2207 7.50246C13.4604 7.66681 13.657 7.88949 13.7929 8.15073C13.9289 8.41197 14 8.7037 14 9C14 9.29631 13.9289 9.58803 13.7929 9.84927C13.657 10.1105 13.4604 10.3332 13.2207 10.4975Z" fill="white"/>
<path d="M13.2207 10.4975L2.7207 17.697C2.45722 17.878 2.15087 17.982 1.83439 17.9979C1.51791 18.0137 1.20318 17.9409 0.92381 17.7871C0.644443 17.6334 0.410935 17.4044 0.248227 17.1248C0.0855191 16.8452 -0.000278122 16.5253 6.7731e-07 16.1994V1.80057C-0.000278122 1.47468 0.0855191 1.15484 0.248227 0.875198C0.410935 0.59556 0.644443 0.36663 0.92381 0.21286C1.20318 0.0590898 1.51791 -0.0137434 1.83439 0.00213786C2.15087 0.0180192 2.45722 0.122019 2.7207 0.30303L13.2207 7.50246C13.4604 7.66681 13.657 7.88949 13.7929 8.15073C13.9289 8.41197 14 8.7037 14 9C14 9.29631 13.9289 9.58803 13.7929 9.84927C13.657 10.1105 13.4604 10.3332 13.2207 10.4975Z" fill="white"/>
</svg>
