<svg width="264" height="227" viewBox="0 0 264 227" fill="none" xmlns="http://www.w3.org/2000/svg">
<g id="cardTwo">
<path id="image 111" d="M21.3066 6C21.3066 2.68629 23.9929 0 27.3066 0H236.693C240.007 0 242.693 2.68629 242.693 6V215H21.3066V6Z" fill="white"/>
<g id="recNav">
<path id="Recording" d="M33.0944 25.8359H34.9847V21.6653H37.295L39.6504 25.8359H41.8107L39.2303 21.3352C40.5055 20.8251 41.3007 19.715 41.3007 18.1697C41.3007 15.9494 39.6954 14.6592 37.4001 14.6592H33.0944V25.8359ZM34.9847 20.015V16.3244H37.4001C38.5852 16.3244 39.3804 17.0596 39.3804 18.1697C39.3804 19.2799 38.5852 20.015 37.4001 20.015H34.9847ZM50.1579 21.5003C50.1579 19.3549 48.5377 17.5696 46.2573 17.5696C43.9769 17.5696 42.2517 19.3549 42.2517 21.7853C42.2517 24.1557 43.9469 26.016 46.3923 26.016C48.0426 26.016 49.3628 25.1758 49.8579 24.0207L48.3726 23.3005C48.0126 23.9606 47.3675 24.4257 46.4073 24.4257C45.1621 24.4257 44.217 23.6006 44.127 22.3104H50.0679C50.1279 22.0703 50.1579 21.7853 50.1579 21.5003ZM44.157 20.9152C44.367 19.73 45.2071 19.0699 46.2573 19.0699C47.2925 19.0699 48.1626 19.835 48.2226 20.9152H44.157ZM55.0073 26.016C56.7326 26.016 58.1428 25.0258 58.6229 23.7056L57.0626 22.9105C56.7476 23.7956 55.9975 24.3507 55.0073 24.3507C53.6871 24.3507 52.727 23.2705 52.727 21.8003C52.727 20.3001 53.6871 19.2349 55.0073 19.2349C55.9825 19.2349 56.7476 19.805 57.0626 20.6751L58.6229 19.895C58.1278 18.5298 56.7176 17.5696 55.0073 17.5696C52.6219 17.5696 50.8517 19.3699 50.8517 21.7853C50.8517 24.2007 52.6369 26.016 55.0073 26.016ZM63.5655 26.016C65.9208 26.016 67.8111 24.2307 67.8111 21.7853C67.8111 19.3399 65.9358 17.5696 63.5655 17.5696C61.1801 17.5696 59.3198 19.3399 59.3198 21.7853C59.3198 24.2307 61.1951 26.016 63.5655 26.016ZM63.5655 24.3507C62.1852 24.3507 61.1951 23.2855 61.1951 21.8003C61.1951 20.3151 62.1852 19.2349 63.5655 19.2349C64.9307 19.2349 65.9358 20.3151 65.9358 21.8003C65.9358 23.2855 64.9307 24.3507 63.5655 24.3507ZM72.9733 17.6597C71.9832 17.6597 71.2031 17.9897 70.783 18.8748V17.7497H69.0877V25.8359H70.888V21.2602C70.888 20 71.6381 19.2799 72.7483 19.2799H73.7235V17.6597H72.9733ZM81.0564 14.6592V18.6498C80.4864 17.9597 79.5562 17.5696 78.476 17.5696C76.1957 17.5696 74.3954 19.3999 74.3954 21.8003C74.3954 24.1857 76.1657 26.016 78.491 26.016C79.5712 26.016 80.5464 25.6109 81.1465 24.8908V25.8359H82.8567V14.6592H81.0564ZM78.6711 24.3507C77.2759 24.3507 76.2707 23.2855 76.2707 21.8003C76.2707 20.3151 77.2759 19.2349 78.6711 19.2349C80.0513 19.2349 81.0564 20.3151 81.0564 21.8003C81.0564 23.3005 80.0513 24.3507 78.6711 24.3507ZM84.5282 16.6845H86.3285V14.6592H84.5282V16.6845ZM84.5282 25.8359H86.3285V17.7497H84.5282V25.8359ZM91.9925 17.5696C90.9873 17.5696 90.1472 17.9747 89.6971 18.7248V17.7497H88.0018V25.8359H89.8021V21.0352C89.8021 19.94 90.4922 19.2349 91.5274 19.2349C92.5476 19.2349 93.2377 19.94 93.2377 21.0352V25.8359H95.0379V20.5851C95.0379 18.8148 93.7927 17.5696 91.9925 17.5696ZM102.722 17.7497V18.7248C102.152 18.0047 101.252 17.5696 100.142 17.5696C98.0113 17.5696 96.181 19.1299 96.181 21.4853C96.181 23.7956 97.9813 25.4309 100.172 25.4309C101.177 25.4309 102.047 25.0858 102.632 24.4407V25.4459C102.632 26.7211 101.627 27.5012 100.367 27.5012C99.2715 27.5012 98.5364 26.9011 98.2514 26.076L96.6911 26.8561C97.2012 28.2213 98.6114 29.1515 100.382 29.1515C102.632 29.1515 104.432 27.6512 104.432 25.4459V17.7497H102.722ZM100.352 23.7656C99.0165 23.7656 98.0563 22.8355 98.0563 21.5003C98.0563 20.15 99.0615 19.2349 100.337 19.2349C101.642 19.2349 102.632 20.165 102.632 21.5003C102.632 22.8205 101.687 23.7656 100.352 23.7656Z" fill="#102A56"/>
<g id="Group">
<rect id="Rectangle 1826" x="216.926" y="13.4414" width="15.0024" height="11.7876" rx="5.89378" fill="url(#paint0_linear_6_11936)"/>
<rect id="Rectangle 1827" x="222.283" y="15.584" width="7.50118" height="7.50118" rx="3.75059" fill="white"/>
</g>
<g id="Iconly/Bold/Volume Off">
<g id="Volume Off">
<path id="Volume Off_2" fill-rule="evenodd" clip-rule="evenodd" d="M204.804 13.0273C205.053 12.7782 205.45 12.7768 205.709 13.0266C205.96 13.2778 205.96 13.6837 205.71 13.9342L193.841 25.8017C193.723 25.9196 193.554 25.9892 193.388 25.9892C193.226 25.9892 193.066 25.9233 192.937 25.8039C192.685 25.5424 192.685 25.1446 192.935 24.8948L194.891 22.9388H194.872C193.896 22.9388 193.186 22.2502 193.055 21.1807C192.907 20.1112 192.937 18.2798 193.055 17.3054C193.193 16.2945 193.941 15.5993 194.872 15.5993H196.138L198.556 13.6214C198.85 13.3723 199.37 13.1372 199.772 13.1306C200.505 13.1306 201.179 13.6426 201.421 14.4631C201.516 14.8081 201.553 15.1517 201.583 15.4821L201.64 15.9502C201.65 16.022 201.659 16.0909 201.666 16.1641L204.804 13.0273ZM200.969 20.2671C201.068 20.1704 201.289 20.1008 201.389 20.1265C201.657 20.1946 201.71 20.5806 201.706 20.8839C201.693 21.7645 201.664 22.3769 201.617 22.7556L201.584 23.0677L201.584 23.0735C201.552 23.3874 201.52 23.7123 201.427 24.0588C201.183 24.8778 200.528 25.4097 199.785 25.4097C199.761 25.4097 199.736 25.4097 199.712 25.409C199.301 25.409 198.855 25.1628 198.602 24.9482L197.702 24.2515C197.36 23.9973 197.461 23.5915 197.653 23.3563C197.796 23.1813 199.519 21.5997 200.424 20.769C200.731 20.4873 200.944 20.292 200.969 20.2671Z" fill="#2D3749"/>
</g>
<g id="voiceFreq">
<rect id="Rectangle 1829" x="32.0742" y="57.916" width="199.853" height="36.4343" rx="4.04" fill="url(#paint1_linear_6_11936)"/>
<g id="Union">
<path d="M212.57 63.2402C212.57 62.9641 212.346 62.7402 212.07 62.7402C211.794 62.7402 211.57 62.9641 211.57 63.2402V89.0302C211.57 89.3063 211.794 89.5302 212.07 89.5302C212.346 89.5302 212.57 89.3063 212.57 89.0302V63.2402Z" fill="white"/>
<path d="M63.082 64.3125C63.082 64.0364 62.8582 63.8125 62.582 63.8125C62.3059 63.8125 62.082 64.0364 62.082 64.3125L62.082 87.9592C62.082 88.2354 62.3059 88.4592 62.582 88.4592C62.8582 88.4592 63.082 88.2354 63.082 87.9592L63.082 64.3125Z" fill="white"/>
<path d="M57.7578 66.4902C58.034 66.4902 58.2578 66.7141 58.2578 66.9902V85.279C58.2578 85.5551 58.034 85.779 57.7578 85.779C57.4817 85.779 57.2578 85.5551 57.2578 85.279V66.9902C57.2578 66.7141 57.4817 66.4902 57.7578 66.4902Z" fill="white"/>
<path d="M48.1172 69.707C48.3933 69.707 48.6172 69.9309 48.6172 70.207L48.6172 82.0662C48.6172 82.3423 48.3933 82.5662 48.1172 82.5662C47.841 82.5662 47.6172 82.3423 47.6172 82.0662L47.6172 70.207C47.6172 69.9309 47.841 69.707 48.1172 69.707Z" fill="white"/>
<path d="M38.9688 72.3477C38.9688 72.0715 38.7449 71.8477 38.4688 71.8477C38.1926 71.8477 37.9688 72.0715 37.9688 72.3477V79.9204C37.9688 80.1966 38.1926 80.4204 38.4688 80.4204C38.7449 80.4204 38.9688 80.1966 38.9688 79.9204L38.9688 72.3477Z" fill="white"/>
<path d="M43.793 72.3477C43.793 72.0715 43.5691 71.8477 43.293 71.8477C43.0168 71.8477 42.793 72.0715 42.793 72.3477L42.793 79.9204C42.793 80.1966 43.0168 80.4204 43.293 80.4204C43.5691 80.4204 43.793 80.1966 43.793 79.9204L43.793 72.3477Z" fill="white"/>
<path d="M53.4375 70.207C53.4375 69.9309 53.2136 69.707 52.9375 69.707C52.6614 69.707 52.4375 69.9309 52.4375 70.207L52.4375 82.0662C52.4375 82.3423 52.6614 82.5662 52.9375 82.5662C53.2136 82.5662 53.4375 82.3423 53.4375 82.0662L53.4375 70.207Z" fill="white"/>
<path d="M67.4062 71.8477C67.6824 71.8477 67.9062 72.0715 67.9062 72.3477V79.9204C67.9062 80.1966 67.6824 80.4204 67.4062 80.4204C67.1301 80.4204 66.9062 80.1966 66.9062 79.9204V72.3477C66.9062 72.0715 67.1301 71.8477 67.4062 71.8477Z" fill="white"/>
<path d="M72.7266 69.1328C72.7266 68.8567 72.5027 68.6328 72.2266 68.6328C71.9504 68.6328 71.7266 68.8567 71.7266 69.1328V83.1352C71.7266 83.4113 71.9504 83.6352 72.2266 83.6352C72.5027 83.6352 72.7266 83.4113 72.7266 83.1352V69.1328Z" fill="white"/>
<path d="M77.0469 71.8477C77.323 71.8477 77.5469 72.0715 77.5469 72.3477V79.9204C77.5469 80.1966 77.323 80.4204 77.0469 80.4204C76.7707 80.4204 76.5469 80.1966 76.5469 79.9204V72.3477C76.5469 72.0715 76.7707 71.8477 77.0469 71.8477Z" fill="white"/>
<path d="M82.3711 73.4199C82.3711 73.1438 82.1472 72.9199 81.8711 72.9199C81.595 72.9199 81.3711 73.1438 81.3711 73.4199V78.8495C81.3711 79.1256 81.595 79.3495 81.8711 79.3495C82.1472 79.3495 82.3711 79.1256 82.3711 78.8495V73.4199Z" fill="white"/>
<path d="M86.6953 71.3125C86.9715 71.3125 87.1953 71.5364 87.1953 71.8125V80.4569C87.1953 80.733 86.9715 80.9569 86.6953 80.9569C86.4192 80.9569 86.1953 80.733 86.1953 80.4569V71.8125C86.1953 71.5364 86.4192 71.3125 86.6953 71.3125Z" fill="white"/>
<path d="M92.0156 66.457C92.0156 66.1809 91.7918 65.957 91.5156 65.957C91.2395 65.957 91.0156 66.1809 91.0156 66.457V85.8174C91.0156 86.0935 91.2395 86.3174 91.5156 86.3174C91.7918 86.3174 92.0156 86.0935 92.0156 85.8174V66.457Z" fill="white"/>
<path d="M96.3359 71.3125C96.6121 71.3125 96.8359 71.5364 96.8359 71.8125V80.4569C96.8359 80.733 96.6121 80.9569 96.3359 80.9569C96.0598 80.9569 95.8359 80.733 95.8359 80.4569V71.8125C95.8359 71.5364 96.0598 71.3125 96.3359 71.3125Z" fill="white"/>
<path d="M101.656 72.3477C101.656 72.0715 101.432 71.8477 101.156 71.8477C100.88 71.8477 100.656 72.0715 100.656 72.3477V79.9204C100.656 80.1966 100.88 80.4204 101.156 80.4204C101.432 80.4204 101.656 80.1966 101.656 79.9204V72.3477Z" fill="white"/>
<path d="M105.98 73.457C106.257 73.457 106.48 73.6809 106.48 73.957V78.315C106.48 78.5912 106.257 78.815 105.98 78.815C105.704 78.815 105.48 78.5912 105.48 78.315V73.957C105.48 73.6809 105.704 73.457 105.98 73.457Z" fill="white"/>
<path d="M111.305 73.4199C111.305 73.1438 111.081 72.9199 110.805 72.9199C110.529 72.9199 110.305 73.1438 110.305 73.4199V78.8495C110.305 79.1256 110.529 79.3495 110.805 79.3495C111.081 79.3495 111.305 79.1256 111.305 78.8495V73.4199Z" fill="white"/>
<path d="M115.625 69.707C115.901 69.707 116.125 69.9309 116.125 70.207V82.0662C116.125 82.3423 115.901 82.5662 115.625 82.5662C115.349 82.5662 115.125 82.3423 115.125 82.0662V70.207C115.125 69.9309 115.349 69.707 115.625 69.707Z" fill="white"/>
<path d="M120.945 70.207C120.945 69.9309 120.721 69.707 120.445 69.707C120.169 69.707 119.945 69.9309 119.945 70.207V82.0662C119.945 82.3423 120.169 82.5662 120.445 82.5662C120.721 82.5662 120.945 82.3423 120.945 82.0662V70.207Z" fill="white"/>
<path d="M125.27 65.957C125.546 65.957 125.77 66.1809 125.77 66.457V85.8174C125.77 86.0935 125.546 86.3174 125.27 86.3174C124.993 86.3174 124.77 86.0935 124.77 85.8174V66.457C124.77 66.1809 124.993 65.957 125.27 65.957Z" fill="white"/>
<path d="M130.594 69.6699C130.594 69.3938 130.37 69.1699 130.094 69.1699C129.818 69.1699 129.594 69.3938 129.594 69.6699V82.6007C129.594 82.8768 129.818 83.1007 130.094 83.1007C130.37 83.1007 130.594 82.8768 130.594 82.6007V69.6699Z" fill="white"/>
<path d="M134.914 71.8477C135.19 71.8477 135.414 72.0715 135.414 72.3477V79.9204C135.414 80.1966 135.19 80.4204 134.914 80.4204C134.638 80.4204 134.414 80.1966 134.414 79.9204V72.3477C134.414 72.0715 134.638 71.8477 134.914 71.8477Z" fill="white"/>
<path d="M140.234 73.4199C140.234 73.1438 140.011 72.9199 139.734 72.9199C139.458 72.9199 139.234 73.1438 139.234 73.4199V78.8495C139.234 79.1256 139.458 79.3495 139.734 79.3495C140.011 79.3495 140.234 79.1256 140.234 78.8495V73.4199Z" fill="white"/>
<path d="M144.559 72.9199C144.835 72.9199 145.059 73.1438 145.059 73.4199V78.8495C145.059 79.1256 144.835 79.3495 144.559 79.3495C144.282 79.3495 144.059 79.1256 144.059 78.8495V73.4199C144.059 73.1438 144.282 72.9199 144.559 72.9199Z" fill="white"/>
<path d="M149.883 73.4199C149.883 73.1438 149.659 72.9199 149.383 72.9199C149.107 72.9199 148.883 73.1438 148.883 73.4199V78.8495C148.883 79.1256 149.107 79.3495 149.383 79.3495C149.659 79.3495 149.883 79.1256 149.883 78.8495V73.4199Z" fill="white"/>
<path d="M154.203 65.957C154.479 65.957 154.703 66.1809 154.703 66.457V85.8174C154.703 86.0935 154.479 86.3174 154.203 86.3174C153.927 86.3174 153.703 86.0935 153.703 85.8174V66.457C153.703 66.1809 153.927 65.957 154.203 65.957Z" fill="white"/>
<path d="M159.523 69.6699C159.523 69.3938 159.3 69.1699 159.023 69.1699C158.747 69.1699 158.523 69.3938 158.523 69.6699V82.6007C158.523 82.8768 158.747 83.1007 159.023 83.1007C159.3 83.1007 159.523 82.8768 159.523 82.6007V69.6699Z" fill="white"/>
<path d="M163.848 71.3125C164.124 71.3125 164.348 71.5364 164.348 71.8125V80.4569C164.348 80.733 164.124 80.9569 163.848 80.9569C163.572 80.9569 163.348 80.733 163.348 80.4569V71.8125C163.348 71.5364 163.572 71.3125 163.848 71.3125Z" fill="white"/>
<path d="M169.172 73.4199C169.172 73.1438 168.948 72.9199 168.672 72.9199C168.396 72.9199 168.172 73.1438 168.172 73.4199V78.8495C168.172 79.1256 168.396 79.3495 168.672 79.3495C168.948 79.3495 169.172 79.1256 169.172 78.8495V73.4199Z" fill="white"/>
<path d="M173.492 71.3125C173.768 71.3125 173.992 71.5364 173.992 71.8125V80.4569C173.992 80.733 173.768 80.9569 173.492 80.9569C173.216 80.9569 172.992 80.733 172.992 80.4569V71.8125C172.992 71.5364 173.216 71.3125 173.492 71.3125Z" fill="white"/>
<path d="M178.812 66.457C178.812 66.1809 178.589 65.957 178.312 65.957C178.036 65.957 177.812 66.1809 177.812 66.457V85.8174C177.812 86.0935 178.036 86.3174 178.312 86.3174C178.589 86.3174 178.812 86.0935 178.812 85.8174V66.457Z" fill="white"/>
<path d="M183.137 71.8477C183.413 71.8477 183.637 72.0715 183.637 72.3477V79.9204C183.637 80.1966 183.413 80.4204 183.137 80.4204C182.861 80.4204 182.637 80.1966 182.637 79.9204V72.3477C182.637 72.0715 182.861 71.8477 183.137 71.8477Z" fill="white"/>
<path d="M188.461 72.3477C188.461 72.0715 188.237 71.8477 187.961 71.8477C187.685 71.8477 187.461 72.0715 187.461 72.3477V79.9204C187.461 80.1966 187.685 80.4204 187.961 80.4204C188.237 80.4204 188.461 80.1966 188.461 79.9204V72.3477Z" fill="white"/>
<path d="M192.781 69.707C193.057 69.707 193.281 69.9309 193.281 70.207V82.0662C193.281 82.3423 193.057 82.5662 192.781 82.5662C192.505 82.5662 192.281 82.3423 192.281 82.0662V70.207C192.281 69.9309 192.505 69.707 192.781 69.707Z" fill="white"/>
<path d="M198.102 70.7402C198.102 70.4641 197.878 70.2402 197.602 70.2402C197.325 70.2402 197.102 70.4641 197.102 70.7402V81.5278C197.102 81.8039 197.325 82.0278 197.602 82.0278C197.878 82.0278 198.102 81.8039 198.102 81.5278V70.7402Z" fill="white"/>
<path d="M226 79.3495V72.9199C226 72.6438 225.776 72.4199 225.5 72.4199C225.224 72.4199 225 72.6438 225 72.9199V79.3495C225 79.6256 225.224 79.8495 225.5 79.8495C225.776 79.8495 226 79.6256 226 79.3495Z" fill="white"/>
<path d="M202.926 67.5254C202.926 67.2492 202.702 67.0254 202.426 67.0254C202.15 67.0254 201.926 67.2492 201.926 67.5254V84.7425C201.926 85.0187 202.15 85.2425 202.426 85.2425C202.702 85.2425 202.926 85.0187 202.926 84.7425V67.5254Z" fill="white"/>
<path d="M220.711 67.0254C220.435 67.0254 220.211 67.2492 220.211 67.5254V84.7425C220.211 85.0187 220.435 85.2425 220.711 85.2425C220.987 85.2425 221.211 85.0187 221.211 84.7425V67.5254C221.211 67.2492 220.987 67.0254 220.711 67.0254Z" fill="white"/>
<path d="M207.75 66.457C207.75 66.1809 207.526 65.957 207.25 65.957C206.974 65.957 206.75 66.1809 206.75 66.457V85.8174C206.75 86.0935 206.974 86.3174 207.25 86.3174C207.526 86.3174 207.75 86.0935 207.75 85.8174V66.457Z" fill="white"/>
<path d="M215.891 65.957C215.614 65.957 215.391 66.1809 215.391 66.457V85.8174C215.391 86.0935 215.614 86.3174 215.891 86.3174C216.167 86.3174 216.391 86.0935 216.391 85.8174V66.457C216.391 66.1809 216.167 65.957 215.891 65.957Z" fill="white"/>
</g>
</g>
</g>
</g>
<g id="middleText">
<g id="Rectangle 1829_2" filter="url(#filter0_d_6_11936)">
<rect x="32.0742" y="103.994" width="199.853" height="36.4343" rx="4" fill="white"/>
</g>
<rect id="Rectangle 1830" x="40.6465" y="110.424" width="23.5751" height="23.5751" rx="4.28639" fill="#D8CDF7"/>
<path id="Rectangle 1831" d="M70.6523 115.246C70.6523 114.358 71.372 113.639 72.2597 113.639H221.925C222.813 113.639 223.533 114.358 223.533 115.246V118.461C223.533 119.349 222.813 120.068 221.925 120.068H72.2597C71.372 120.068 70.6523 119.349 70.6523 118.461V115.246Z" fill="#D8CDF7"/>
<path id="Rectangle 1832" d="M70.6523 125.426C70.6523 124.538 71.372 123.818 72.2597 123.818H136.925C137.813 123.818 138.533 124.538 138.533 125.426V128.641C138.533 129.528 137.813 130.248 136.925 130.248H72.2597C71.372 130.248 70.6523 129.528 70.6523 128.641V125.426Z" fill="#D8CDF7"/>
</g>
<g id="rec footer">
<g id="Group 3764">
<g id="Rectangle 1828" filter="url(#filter1_d_6_11936)">
<rect x="32.0723" y="152.754" width="199.853" height="50.3651" rx="4" fill="white"/>
<rect x="32.3402" y="153.022" width="199.317" height="49.8293" rx="3.7321" stroke="url(#paint2_linear_6_11936)" stroke-width="0.535798"/>
</g>
<g id="Group 3742">
<g id="Rectangle 81" filter="url(#filter2_d_6_11936)">
<path d="M171.381 171.358C171.381 169.663 172.755 168.289 174.449 168.289H210.889C212.584 168.289 213.958 169.663 213.958 171.358V184.783C213.958 186.478 212.584 187.852 210.889 187.852H174.449C172.755 187.852 171.381 186.478 171.381 184.783V171.358Z" fill="white"/>
</g>
<path id="Ellipse 14" d="M185.188 177.879C185.188 179.574 183.814 180.948 182.119 180.948C180.425 180.948 179.051 179.574 179.051 177.879C179.051 176.184 180.425 174.811 182.119 174.811C183.814 174.811 185.188 176.184 185.188 177.879Z" fill="#FF4853"/>
<g id="Rec">
<path d="M188.939 180.703H190.196V177.931H191.732L193.298 180.703H194.734L193.018 177.711C193.866 177.372 194.395 176.634 194.395 175.607C194.395 174.131 193.328 173.273 191.802 173.273H188.939V180.703ZM190.196 176.834V174.38H191.802C192.59 174.38 193.118 174.869 193.118 175.607C193.118 176.345 192.59 176.834 191.802 176.834H190.196Z" fill="black"/>
<path d="M200.283 177.821C200.283 176.395 199.206 175.208 197.69 175.208C196.174 175.208 195.027 176.395 195.027 178.011C195.027 179.586 196.154 180.823 197.779 180.823C198.876 180.823 199.754 180.265 200.083 179.497L199.096 179.018C198.857 179.457 198.428 179.766 197.789 179.766C196.962 179.766 196.333 179.217 196.274 178.36H200.223C200.263 178.2 200.283 178.011 200.283 177.821ZM196.293 177.432C196.433 176.644 196.992 176.206 197.69 176.206C198.378 176.206 198.956 176.714 198.996 177.432H196.293Z" fill="black"/>
<path d="M203.506 180.823C204.653 180.823 205.591 180.165 205.91 179.287L204.873 178.759C204.663 179.347 204.165 179.716 203.506 179.716C202.629 179.716 201.99 178.998 201.99 178.021C201.99 177.023 202.629 176.315 203.506 176.315C204.155 176.315 204.663 176.694 204.873 177.273L205.91 176.754C205.581 175.846 204.643 175.208 203.506 175.208C201.921 175.208 200.744 176.405 200.744 178.011C200.744 179.616 201.931 180.823 203.506 180.823Z" fill="black"/>
</g>
</g>
<path id="00:00:00" d="M49.6287 178.154C52.0865 178.154 53.6977 176.038 53.6977 172.897C53.6977 169.757 52.0728 167.654 49.615 167.654C47.1846 167.654 45.5461 169.743 45.5461 172.897C45.5461 176.051 47.1982 178.154 49.6287 178.154ZM49.6287 176.57C48.1813 176.57 47.2665 175.164 47.2665 172.897C47.2665 170.631 48.1677 169.238 49.615 169.238C51.0897 169.238 51.9909 170.631 51.9909 172.897C51.9909 175.177 51.0897 176.57 49.6287 176.57ZM59.0026 178.154C61.4604 178.154 63.0716 176.038 63.0716 172.897C63.0716 169.757 61.4467 167.654 58.989 167.654C56.5585 167.654 54.92 169.743 54.92 172.897C54.92 176.051 56.5722 178.154 59.0026 178.154ZM59.0026 176.57C57.5553 176.57 56.6405 175.164 56.6405 172.897C56.6405 170.631 57.5416 169.238 58.989 169.238C60.4636 169.238 61.3648 170.631 61.3648 172.897C61.3648 175.177 60.4636 176.57 59.0026 176.57ZM64.7719 172.488H66.465V170.644H64.7719V172.488ZM64.7719 177.99H66.465V176.147H64.7719V177.99ZM72.2568 178.154C74.7146 178.154 76.3258 176.038 76.3258 172.897C76.3258 169.757 74.7009 167.654 72.2432 167.654C69.8127 167.654 68.1742 169.743 68.1742 172.897C68.1742 176.051 69.8264 178.154 72.2568 178.154ZM72.2568 176.57C70.8095 176.57 69.8946 175.164 69.8946 172.897C69.8946 170.631 70.7958 169.238 72.2432 169.238C73.7178 169.238 74.619 170.631 74.619 172.897C74.619 175.177 73.7178 176.57 72.2568 176.57ZM81.6308 178.154C84.0885 178.154 85.6997 176.038 85.6997 172.897C85.6997 169.757 84.0749 167.654 81.6171 167.654C79.1867 167.654 77.5482 169.743 77.5482 172.897C77.5482 176.051 79.2003 178.154 81.6308 178.154ZM81.6308 176.57C80.1834 176.57 79.2686 175.164 79.2686 172.897C79.2686 170.631 80.1698 169.238 81.6171 169.238C83.0918 169.238 83.993 170.631 83.993 172.897C83.993 175.177 83.0918 176.57 81.6308 176.57ZM87.4 172.488H89.0931V170.644H87.4V172.488ZM87.4 177.99H89.0931V176.147H87.4V177.99ZM94.885 178.154C97.3427 178.154 98.9539 176.038 98.9539 172.897C98.9539 169.757 97.3291 167.654 94.8713 167.654C92.4409 167.654 90.8024 169.743 90.8024 172.897C90.8024 176.051 92.4545 178.154 94.885 178.154ZM94.885 176.57C93.4376 176.57 92.5228 175.164 92.5228 172.897C92.5228 170.631 93.424 169.238 94.8713 169.238C96.346 169.238 97.2471 170.631 97.2471 172.897C97.2471 175.177 96.346 176.57 94.885 176.57ZM104.259 178.154C106.717 178.154 108.328 176.038 108.328 172.897C108.328 169.757 106.703 167.654 104.245 167.654C101.815 167.654 100.176 169.743 100.176 172.897C100.176 176.051 101.828 178.154 104.259 178.154ZM104.259 176.57C102.812 176.57 101.897 175.164 101.897 172.897C101.897 170.631 102.798 169.238 104.245 169.238C105.72 169.238 106.621 170.631 106.621 172.897C106.621 175.177 105.72 176.57 104.259 176.57Z" fill="#2D2113"/>
<path id="Click for recording" d="M48.3479 190.522C49.6014 190.522 50.5189 189.777 50.8303 188.982L50.1339 188.646C49.8472 189.359 49.2081 189.834 48.3479 189.834C47.0453 189.834 46.1278 188.826 46.1278 187.376C46.1278 185.926 47.0453 184.91 48.3479 184.91C49.2081 184.91 49.8472 185.394 50.1339 186.106L50.8303 185.77C50.5189 184.976 49.6014 184.222 48.3479 184.222C46.6111 184.222 45.3495 185.549 45.3495 187.376C45.3495 189.195 46.6193 190.522 48.3479 190.522ZM51.7448 190.424H52.4493V184.32H51.7448V190.424ZM53.4633 185.279H54.1679V184.32H53.4633V185.279ZM53.4633 190.424H54.1679V186.082H53.4633V190.424ZM57.1102 190.522C57.9541 190.522 58.6832 190.014 58.9535 189.375L58.3227 189.047C58.1097 189.523 57.6755 189.842 57.1102 189.842C56.291 189.842 55.6847 189.154 55.6847 188.253C55.6847 187.335 56.291 186.663 57.1102 186.663C57.6755 186.663 58.1097 186.983 58.3227 187.458L58.9535 187.13C58.6832 186.483 57.9622 185.983 57.1102 185.983C55.865 185.983 54.9392 186.942 54.9392 188.245C54.9392 189.547 55.865 190.522 57.1102 190.522ZM63.2526 186.082H62.4088L60.4098 188.212V184.32H59.7053V190.424H60.4098V189.17L61.1799 188.343L62.4416 190.424H63.2526L61.6469 187.819L63.2526 186.082ZM65.6838 190.424H66.3884V186.754H67.4207V186.082H66.3884V185.689C66.3884 185.156 66.7161 184.886 67.1913 184.886C67.265 184.886 67.4452 184.894 67.5353 184.91V184.288C67.437 184.263 67.2404 184.247 67.1093 184.247C66.3229 184.247 65.6838 184.755 65.6838 185.689V186.082H64.84V186.754H65.6838V190.424ZM70.0006 190.522C71.2541 190.522 72.2372 189.564 72.2372 188.245C72.2372 186.926 71.2622 185.983 70.0006 185.983C68.7389 185.983 67.764 186.926 67.764 188.245C67.764 189.564 68.7471 190.522 70.0006 190.522ZM70.0006 189.842C69.1568 189.842 68.5096 189.162 68.5096 188.253C68.5096 187.343 69.1568 186.663 70.0006 186.663C70.8444 186.663 71.4916 187.343 71.4916 188.253C71.4916 189.162 70.8444 189.842 70.0006 189.842ZM74.9257 186.033C74.4013 186.033 73.9835 186.221 73.7541 186.622V186.082H73.0741V190.424H73.7787V187.835C73.7787 187.114 74.1965 186.704 74.8191 186.704H75.2779V186.033H74.9257ZM79.2939 186.033C78.7696 186.033 78.3518 186.221 78.1224 186.622V186.082H77.4424V190.424H78.147V187.835C78.147 187.114 78.5648 186.704 79.1874 186.704H79.6462V186.033H79.2939ZM84.2941 188.064C84.2941 186.958 83.5076 185.983 82.2705 185.983C81.058 185.983 80.1568 186.934 80.1568 188.245C80.1568 189.555 81.0826 190.522 82.3279 190.522C83.2208 190.522 83.9254 190.039 84.1958 189.441L83.5813 189.113C83.3519 189.555 82.9505 189.883 82.3361 189.883C81.5741 189.883 80.9269 189.326 80.8942 188.466H84.2613C84.2859 188.327 84.2941 188.187 84.2941 188.064ZM80.9106 187.86C81.0089 187.073 81.5905 186.606 82.2705 186.606C82.9095 186.606 83.5076 187.139 83.5158 187.86H80.9106ZM86.9762 190.522C87.82 190.522 88.5491 190.014 88.8195 189.375L88.1887 189.047C87.9756 189.523 87.5414 189.842 86.9762 189.842C86.1569 189.842 85.5507 189.154 85.5507 188.253C85.5507 187.335 86.1569 186.663 86.9762 186.663C87.5414 186.663 87.9756 186.983 88.1887 187.458L88.8195 187.13C88.5491 186.483 87.8282 185.983 86.9762 185.983C85.7309 185.983 84.8051 186.942 84.8051 188.245C84.8051 189.547 85.7309 190.522 86.9762 190.522ZM91.562 190.522C92.8155 190.522 93.7986 189.564 93.7986 188.245C93.7986 186.926 92.8236 185.983 91.562 185.983C90.3003 185.983 89.3254 186.926 89.3254 188.245C89.3254 189.564 90.3085 190.522 91.562 190.522ZM91.562 189.842C90.7182 189.842 90.071 189.162 90.071 188.253C90.071 187.343 90.7182 186.663 91.562 186.663C92.4058 186.663 93.053 187.343 93.053 188.253C93.053 189.162 92.4058 189.842 91.562 189.842ZM96.487 186.033C95.9627 186.033 95.5449 186.221 95.3155 186.622V186.082H94.6355V190.424H95.3401V187.835C95.3401 187.114 95.7579 186.704 96.3805 186.704H96.8393V186.033H96.487ZM101.086 184.32V186.721C100.774 186.262 100.193 185.983 99.5374 185.983C98.3167 185.983 97.35 186.942 97.35 188.253C97.35 189.564 98.3085 190.522 99.5456 190.522C100.201 190.522 100.783 190.26 101.102 189.793V190.424H101.79V184.32H101.086ZM99.5865 189.842C98.7263 189.842 98.0955 189.17 98.0955 188.253C98.0955 187.343 98.7263 186.663 99.5865 186.663C100.447 186.663 101.086 187.343 101.086 188.253C101.086 189.17 100.447 189.842 99.5865 189.842ZM102.803 185.279H103.507V184.32H102.803V185.279ZM102.803 190.424H103.507V186.082H102.803V190.424ZM106.466 185.983C105.933 185.983 105.466 186.205 105.212 186.582V186.082H104.524V190.424H105.229V187.794C105.229 187.114 105.663 186.663 106.31 186.663C106.966 186.663 107.383 187.106 107.383 187.794V190.424H108.088V187.565C108.088 186.655 107.408 185.983 106.466 185.983ZM112.435 186.082V186.68C112.132 186.246 111.6 185.983 110.961 185.983C109.781 185.983 108.839 186.876 108.839 188.089C108.839 189.285 109.789 190.203 110.969 190.203C111.575 190.203 112.099 189.973 112.419 189.572V190.244C112.419 191.071 111.772 191.546 111.01 191.546C110.338 191.546 109.912 191.178 109.74 190.76L109.117 191.096C109.396 191.751 110.109 192.226 111.026 192.226C112.23 192.226 113.123 191.391 113.123 190.244V186.082H112.435ZM111.002 189.523C110.166 189.523 109.584 188.933 109.584 188.089C109.584 187.229 110.199 186.663 110.993 186.663C111.821 186.663 112.419 187.262 112.419 188.089C112.419 188.908 111.845 189.523 111.002 189.523Z" fill="#FF878E"/>
</g>
</g>
</g>
<defs>
<filter id="filter0_d_6_11936" x="0.0742188" y="85.9941" width="263.853" height="100.434" filterUnits="userSpaceOnUse" color-interpolation-filters="sRGB">
<feFlood flood-opacity="0" result="BackgroundImageFix"/>
<feColorMatrix in="SourceAlpha" type="matrix" values="0 0 0 0 0 0 0 0 0 0 0 0 0 0 0 0 0 0 127 0" result="hardAlpha"/>
<feMorphology radius="14" operator="erode" in="SourceAlpha" result="effect1_dropShadow_6_11936"/>
<feOffset dy="14"/>
<feGaussianBlur stdDeviation="23"/>
<feComposite in2="hardAlpha" operator="out"/>
<feColorMatrix type="matrix" values="0 0 0 0 0.687457 0 0 0 0 0.231987 0 0 0 0 0.646724 0 0 0 0.44 0"/>
<feBlend mode="normal" in2="BackgroundImageFix" result="effect1_dropShadow_6_11936"/>
<feBlend mode="normal" in="SourceGraphic" in2="effect1_dropShadow_6_11936" result="shape"/>
</filter>
<filter id="filter1_d_6_11936" x="21.0723" y="152.754" width="221.853" height="73.365" filterUnits="userSpaceOnUse" color-interpolation-filters="sRGB">
<feFlood flood-opacity="0" result="BackgroundImageFix"/>
<feColorMatrix in="SourceAlpha" type="matrix" values="0 0 0 0 0 0 0 0 0 0 0 0 0 0 0 0 0 0 127 0" result="hardAlpha"/>
<feMorphology radius="9" operator="erode" in="SourceAlpha" result="effect1_dropShadow_6_11936"/>
<feOffset dy="12"/>
<feGaussianBlur stdDeviation="10"/>
<feComposite in2="hardAlpha" operator="out"/>
<feColorMatrix type="matrix" values="0 0 0 0 0.970718 0 0 0 0 0.352826 0 0 0 0 0.820013 0 0 0 0.1 0"/>
<feBlend mode="normal" in2="BackgroundImageFix" result="effect1_dropShadow_6_11936"/>
<feBlend mode="normal" in="SourceGraphic" in2="effect1_dropShadow_6_11936" result="shape"/>
</filter>
<filter id="filter2_d_6_11936" x="146.821" y="154.086" width="91.6971" height="68.6825" filterUnits="userSpaceOnUse" color-interpolation-filters="sRGB">
<feFlood flood-opacity="0" result="BackgroundImageFix"/>
<feColorMatrix in="SourceAlpha" type="matrix" values="0 0 0 0 0 0 0 0 0 0 0 0 0 0 0 0 0 0 127 0" result="hardAlpha"/>
<feOffset dy="10.3566"/>
<feGaussianBlur stdDeviation="12.28"/>
<feComposite in2="hardAlpha" operator="out"/>
<feColorMatrix type="matrix" values="0 0 0 0 0.0957321 0 0 0 0 0.0957321 0 0 0 0 0.0957321 0 0 0 0.08 0"/>
<feBlend mode="normal" in2="BackgroundImageFix" result="effect1_dropShadow_6_11936"/>
<feBlend mode="normal" in="SourceGraphic" in2="effect1_dropShadow_6_11936" result="shape"/>
</filter>
<linearGradient id="paint0_linear_6_11936" x1="232.309" y1="10.7186" x2="215.068" y2="34.3699" gradientUnits="userSpaceOnUse">
<stop stop-color="#FDA195"/>
<stop offset="0.46657" stop-color="#FE7DEC"/>
<stop offset="1" stop-color="#5754DA"/>
</linearGradient>
<linearGradient id="paint1_linear_6_11936" x1="237" y1="49.5" x2="218.591" y2="158.337" gradientUnits="userSpaceOnUse">
<stop stop-color="#FDA195"/>
<stop offset="0.46657" stop-color="#FE7DEC"/>
<stop offset="1" stop-color="#5754DA"/>
</linearGradient>
<linearGradient id="paint2_linear_6_11936" x1="131.999" y1="152.754" x2="131.999" y2="203.119" gradientUnits="userSpaceOnUse">
<stop stop-color="#5D38E0" stop-opacity="0.36"/>
<stop offset="1" stop-color="#5D38E0" stop-opacity="0.03"/>
</linearGradient>
</defs>
</svg>
