<svg width="224" height="216" viewBox="0 0 224 216" fill="none" xmlns="http://www.w3.org/2000/svg">
<g id="cardFour">
<path id="image 49" d="M0 6C0 2.68629 2.68629 0 6 0H218C221.314 0 224 2.68629 224 6V216H0V6Z" fill="white"/>
<g id="SSL/126">
<path d="M26.4366 46.2637C29.9126 46.2637 32.2666 44.3497 32.2666 41.5117C32.2666 39.3117 30.8806 37.8597 28.1746 37.0237L25.0726 36.0777C23.7526 35.6817 23.0486 34.9337 23.0486 33.9217C23.0486 32.6677 24.1926 31.7877 25.9086 31.7877C27.7786 31.7877 29.1866 32.7777 29.7806 34.5157L32.1786 33.4157C31.3426 31.1057 28.9886 29.3457 25.8866 29.3457C22.5426 29.3457 20.2546 31.2597 20.2546 34.0537C20.2546 36.1657 21.5746 37.7937 24.2806 38.6077L27.4926 39.5977C28.7906 39.9937 29.4726 40.5877 29.4726 41.7097C29.4726 42.9197 28.2846 43.8217 26.4366 43.8217C24.5666 43.8217 22.8726 42.6997 22.1026 40.6537L19.7266 41.7317C20.5626 44.3717 23.2026 46.2637 26.4366 46.2637Z" fill="#EBEBEB"/>
<path d="M40.5088 46.2637C43.9848 46.2637 46.3388 44.3497 46.3388 41.5117C46.3388 39.3117 44.9528 37.8597 42.2468 37.0237L39.1448 36.0777C37.8248 35.6817 37.1208 34.9337 37.1208 33.9217C37.1208 32.6677 38.2648 31.7877 39.9808 31.7877C41.8508 31.7877 43.2588 32.7777 43.8528 34.5157L46.2508 33.4157C45.4148 31.1057 43.0608 29.3457 39.9588 29.3457C36.6148 29.3457 34.3268 31.2597 34.3268 34.0537C34.3268 36.1657 35.6468 37.7937 38.3528 38.6077L41.5648 39.5977C42.8628 39.9937 43.5448 40.5877 43.5448 41.7097C43.5448 42.9197 42.3568 43.8217 40.5088 43.8217C38.6388 43.8217 36.9448 42.6997 36.1748 40.6537L33.7988 41.7317C34.6348 44.3717 37.2748 46.2637 40.5088 46.2637Z" fill="#EBEBEB"/>
<path d="M48.6411 45.9997H58.7611V43.5577H51.4131V29.6097H48.6411V45.9997Z" fill="#EBEBEB"/>
<path d="M59.2382 45.9997H62.1862L69.5122 29.6097H66.5642L59.2382 45.9997Z" fill="#EBEBEB"/>
<path d="M73.0109 45.9997H75.8049V29.6097L69.9309 29.6317V31.9857H73.0109V45.9997Z" fill="#EBEBEB"/>
<path d="M79.5846 45.9997H90.5406V43.6237H83.1486L87.0646 39.5537C89.2206 37.3317 90.2546 35.7477 90.2546 33.9437C90.2546 31.2157 88.1426 29.3457 85.1066 29.3457C82.4446 29.3457 80.3106 30.7317 79.5406 32.9537L81.7626 34.1637C82.2686 32.6897 83.4346 31.8537 84.9746 31.8537C86.5146 31.8537 87.4606 32.7337 87.4606 34.2077C87.4606 35.5497 86.6686 36.5617 84.0286 39.2897L79.5626 43.9317L79.5846 45.9997Z" fill="#EBEBEB"/>
<path d="M98.4168 35.6157C98.2188 35.6157 97.9988 35.6377 97.8008 35.6597L102.201 29.6097H99.0548L94.1488 36.3857C93.0488 37.8817 92.4108 39.2457 92.4108 40.8297C92.4108 43.9537 94.7428 46.2637 98.0428 46.2637C101.299 46.2637 103.675 43.9757 103.675 40.9177C103.675 38.0577 101.409 35.6157 98.4168 35.6157ZM98.0428 43.7557C96.4368 43.7557 95.1828 42.5457 95.1828 40.8517C95.1828 39.1357 96.4368 37.9697 98.0428 37.9697C99.6488 37.9697 100.881 39.1357 100.881 40.8517C100.881 42.5457 99.6268 43.7557 98.0428 43.7557Z" fill="#EBEBEB"/>
</g>
<g id="imgmid">
<rect id="Rectangle 1838" x="55" y="60" width="88" height="25" rx="3" stroke="#D6AEFF" stroke-width="1.5"/>
<rect id="Rectangle 1841" x="69" y="71" width="14" height="5" rx="1" stroke="#D6AEFF" stroke-width="1.5"/>
<rect id="Rectangle 1842" x="69" y="105" width="14" height="4" rx="1" stroke="#D6AEFF" stroke-width="1.5"/>
<path id="Vector 712" d="M71.5 85V93" stroke="#D6AEFF" stroke-width="1.5"/>
<path id="Vector 714" d="M71.5 118V126" stroke="#D6AEFF" stroke-width="1.5"/>
<path id="Vector 713" d="M124 85V93" stroke="#D6AEFF" stroke-width="1.5"/>
<path id="Vector 715" d="M124 118V126" stroke="#D6AEFF" stroke-width="1.5"/>
<rect id="Rectangle 1839" x="55" y="93" width="88" height="25" rx="3" stroke="#D6AEFF" stroke-width="1.5"/>
<rect id="Rectangle 1840" x="58" y="126" width="82" height="25" rx="3" stroke="#D6AEFF" stroke-width="1.5"/>
</g>
<g id="shieldIcon">
<path id="Vector" d="M154.002 113C154.002 113 190.003 95.0028 190.003 68V36.5009L154.002 23L118 36.5009V68C118 95.0028 154.002 113 154.002 113Z" fill="white" stroke="#E1E5ED" stroke-width="2" stroke-linecap="round" stroke-linejoin="round"/>
<path id="Vector_2" d="M154.002 107.13C154.002 107.13 185.305 91.4785 185.305 68.0014V40.6163L154.002 28.873L122.699 40.6163V68.0014C122.699 91.4794 154.002 107.13 154.002 107.13Z" fill="#E1E5ED"/>
<path id="Vector_3" d="M154.004 107.13C154.004 107.13 185.306 91.4785 185.306 68.0014V40.6163L154.004 28.873C153.833 29.3691 154.004 107.13 154.004 107.13Z" fill="#CCD3E0"/>
<g id="Vector_4">
<path d="M206.228 54.4941H158.315C151.83 54.4941 146.572 59.7518 146.572 66.2374C146.572 72.723 151.83 77.9806 158.315 77.9806H206.228C212.713 77.9806 217.971 72.723 217.971 66.2374C217.971 59.7518 212.713 54.4941 206.228 54.4941Z" fill="url(#paint0_linear_6_11811)"/>
<path d="M206.228 54.4941H158.315C151.83 54.4941 146.572 59.7518 146.572 66.2374C146.572 72.723 151.83 77.9806 158.315 77.9806H206.228C212.713 77.9806 217.971 72.723 217.971 66.2374C217.971 59.7518 212.713 54.4941 206.228 54.4941Z" fill="url(#paint1_linear_6_11811)"/>
</g>
<path id="Vector_5" d="M160.194 68.586C161.491 68.586 162.543 67.5344 162.543 66.2373C162.543 64.9402 161.491 63.8887 160.194 63.8887C158.897 63.8887 157.846 64.9402 157.846 66.2373C157.846 67.5344 158.897 68.586 160.194 68.586Z" fill="white"/>
<path id="Vector_6" d="M170.528 68.586C171.825 68.586 172.877 67.5344 172.877 66.2373C172.877 64.9402 171.825 63.8887 170.528 63.8887C169.231 63.8887 168.18 64.9402 168.18 66.2373C168.18 67.5344 169.231 68.586 170.528 68.586Z" fill="white"/>
<path id="Vector_7" d="M180.862 68.586C182.159 68.586 183.211 67.5344 183.211 66.2373C183.211 64.9402 182.159 63.8887 180.862 63.8887C179.565 63.8887 178.514 64.9402 178.514 66.2373C178.514 67.5344 179.565 68.586 180.862 68.586Z" fill="white"/>
<path id="Vector_8" d="M191.196 68.586C192.493 68.586 193.545 67.5344 193.545 66.2373C193.545 64.9402 192.493 63.8887 191.196 63.8887C189.899 63.8887 188.848 64.9402 188.848 66.2373C188.848 67.5344 189.899 68.586 191.196 68.586Z" fill="white"/>
<path id="Vector_9" opacity="0.5" d="M201.53 68.586C202.827 68.586 203.879 67.5344 203.879 66.2373C203.879 64.9402 202.827 63.8887 201.53 63.8887C200.233 63.8887 199.182 64.9402 199.182 66.2373C199.182 67.5344 200.233 68.586 201.53 68.586Z" fill="white"/>
</g>
<g id="checkIcon">
<path id="Vector_10" d="M169 174C178.941 174 187 165.941 187 156C187 146.059 178.941 138 169 138C159.059 138 151 146.059 151 156C151 165.941 159.059 174 169 174Z" fill="url(#paint2_linear_6_11811)"/>
<path id="Vector_11" d="M177.25 151.5L166.244 162L160.75 156.75" stroke="white" stroke-width="2" stroke-linecap="round" stroke-linejoin="round"/>
</g>
<g id="lockImg">
<rect id="Rectangle 1843" x="20" y="141" width="48" height="48" rx="4.01165" fill="white" stroke="url(#paint3_linear_6_11811)" stroke-width="2"/>
<g id="Lock">
<path id="Vector_12" d="M54 160H34C33.4477 160 33 160.448 33 161V175C33 175.552 33.4477 176 34 176H54C54.5523 176 55 175.552 55 175V161C55 160.448 54.5523 160 54 160Z" stroke="#FFB054" stroke-width="2" stroke-linecap="round" stroke-linejoin="round"/>
<path id="Vector_13" d="M39.5 160V155.5C39.5 154.307 39.9741 153.162 40.818 152.318C41.6619 151.474 42.8065 151 44 151C45.1935 151 46.3381 151.474 47.182 152.318C48.0259 153.162 48.5 154.307 48.5 155.5V160" stroke="#FFB054" stroke-width="2" stroke-linecap="round" stroke-linejoin="round"/>
<path id="Vector_14" d="M44 169.5C44.8284 169.5 45.5 168.828 45.5 168C45.5 167.172 44.8284 166.5 44 166.5C43.1716 166.5 42.5 167.172 42.5 168C42.5 168.828 43.1716 169.5 44 169.5Z" fill="#FFB054"/>
</g>
</g>
</g>
<defs>
<linearGradient id="paint0_linear_6_11811" x1="147.294" y1="78.475" x2="178.255" y2="37.6622" gradientUnits="userSpaceOnUse">
<stop stop-color="#706CEB"/>
<stop offset="1" stop-color="#FF65F2"/>
</linearGradient>
<linearGradient id="paint1_linear_6_11811" x1="220.83" y1="53.1344" x2="208.782" y2="70.2324" gradientUnits="userSpaceOnUse">
<stop offset="0.151095" stop-color="#FCB564"/>
<stop offset="1" stop-color="#FB6FFF" stop-opacity="0"/>
</linearGradient>
<linearGradient id="paint2_linear_6_11811" x1="151.364" y1="174.758" x2="198.186" y2="154.378" gradientUnits="userSpaceOnUse">
<stop stop-color="#273264"/>
<stop offset="1" stop-color="#6B76A4"/>
</linearGradient>
<linearGradient id="paint3_linear_6_11811" x1="101" y1="124.071" x2="18.2274" y2="156.32" gradientUnits="userSpaceOnUse">
<stop stop-color="#F2A142" stop-opacity="0"/>
<stop offset="1" stop-color="#F0A54D"/>
</linearGradient>
</defs>
</svg>
