<svg width="101" height="26" viewBox="0 0 101 26" fill="none" xmlns="http://www.w3.org/2000/svg">
<path d="M37.704 21L33.432 4.2H36.696L40.248 18.96H40.584L44.136 4.2H47.4L43.128 21H37.704ZM49.7559 21V9.096H52.7799V21H49.7559ZM51.2679 7.704C50.7239 7.704 50.2599 7.528 49.8759 7.176C49.5079 6.824 49.3239 6.36 49.3239 5.784C49.3239 5.208 49.5079 4.744 49.8759 4.392C50.2599 4.04 50.7239 3.864 51.2679 3.864C51.8279 3.864 52.2919 4.04 52.6599 4.392C53.0279 4.744 53.2119 5.208 53.2119 5.784C53.2119 6.36 53.0279 6.824 52.6599 7.176C52.2919 7.528 51.8279 7.704 51.2679 7.704ZM61.1709 21.336C60.2269 21.336 59.3389 21.104 58.5069 20.64C57.6909 20.16 57.0349 19.464 56.5389 18.552C56.0429 17.64 55.7949 16.536 55.7949 15.24V14.856C55.7949 13.56 56.0429 12.456 56.5389 11.544C57.0349 10.632 57.6909 9.944 58.5069 9.48C59.3229 9 60.2109 8.76 61.1709 8.76C61.8909 8.76 62.4909 8.848 62.9709 9.024C63.4669 9.184 63.8669 9.392 64.1709 9.648C64.4749 9.904 64.7069 10.176 64.8669 10.464H65.2989V4.2H68.3229V21H65.3469V19.56H64.9149C64.6429 20.008 64.2189 20.416 63.6429 20.784C63.0829 21.152 62.2589 21.336 61.1709 21.336ZM62.0829 18.696C63.0109 18.696 63.7869 18.4 64.4109 17.808C65.0349 17.2 65.3469 16.32 65.3469 15.168V14.928C65.3469 13.776 65.0349 12.904 64.4109 12.312C63.8029 11.704 63.0269 11.4 62.0829 11.4C61.1549 11.4 60.3789 11.704 59.7549 12.312C59.1309 12.904 58.8189 13.776 58.8189 14.928V15.168C58.8189 16.32 59.1309 17.2 59.7549 17.808C60.3789 18.4 61.1549 18.696 62.0829 18.696ZM71.3396 15.096V14.712C71.3396 13.464 71.5876 12.4 72.0836 11.52C72.5796 10.624 73.2356 9.944 74.0516 9.48C74.8836 9 75.7876 8.76 76.7636 8.76C77.8516 8.76 78.6756 8.952 79.2356 9.336C79.7956 9.72 80.2036 10.12 80.4596 10.536H80.8916V9.096H83.8676V23.112C83.8676 23.928 83.6276 24.576 83.1476 25.056C82.6676 25.552 82.0276 25.8 81.2276 25.8H73.2596V23.16H80.1716C80.6196 23.16 80.8436 22.92 80.8436 22.44V19.344H80.4116C80.2516 19.6 80.0276 19.864 79.7396 20.136C79.4516 20.392 79.0676 20.608 78.5876 20.784C78.1076 20.96 77.4996 21.048 76.7636 21.048C75.7876 21.048 74.8836 20.816 74.0516 20.352C73.2356 19.872 72.5796 19.192 72.0836 18.312C71.5876 17.416 71.3396 16.344 71.3396 15.096ZM77.6276 18.408C78.5556 18.408 79.3316 18.112 79.9556 17.52C80.5796 16.928 80.8916 16.096 80.8916 15.024V14.784C80.8916 13.696 80.5796 12.864 79.9556 12.288C79.3476 11.696 78.5716 11.4 77.6276 11.4C76.6996 11.4 75.9236 11.696 75.2996 12.288C74.6756 12.864 74.3636 13.696 74.3636 14.784V15.024C74.3636 16.096 74.6756 16.928 75.2996 17.52C75.9236 18.112 76.6996 18.408 77.6276 18.408ZM93.1243 21.336C91.9403 21.336 90.8763 21.096 89.9323 20.616C88.9883 20.136 88.2443 19.44 87.7003 18.528C87.1563 17.616 86.8843 16.52 86.8843 15.24V14.856C86.8843 13.576 87.1563 12.48 87.7003 11.568C88.2443 10.656 88.9883 9.96 89.9323 9.48C90.8763 9 91.9403 8.76 93.1243 8.76C94.3083 8.76 95.3723 9 96.3163 9.48C97.2603 9.96 98.0043 10.656 98.5483 11.568C99.0923 12.48 99.3643 13.576 99.3643 14.856V15.24C99.3643 16.52 99.0923 17.616 98.5483 18.528C98.0043 19.44 97.2603 20.136 96.3163 20.616C95.3723 21.096 94.3083 21.336 93.1243 21.336ZM93.1243 18.648C94.0523 18.648 94.8203 18.352 95.4283 17.76C96.0363 17.152 96.3403 16.288 96.3403 15.168V14.928C96.3403 13.808 96.0363 12.952 95.4283 12.36C94.8363 11.752 94.0683 11.448 93.1243 11.448C92.1963 11.448 91.4283 11.752 90.8203 12.36C90.2123 12.952 89.9083 13.808 89.9083 14.928V15.168C89.9083 16.288 90.2123 17.152 90.8203 17.76C91.4283 18.352 92.1963 18.648 93.1243 18.648Z" fill="#021639"/>
<path fill-rule="evenodd" clip-rule="evenodd" d="M1.98246 25.9539C2.89681 26.2198 3.5576 25.2887 3.5576 24.3365V11.0525C3.5576 9.35544 5.40481 8.30355 6.86412 9.16944L15.1826 14.1056C15.5474 14.3221 16.0092 14.0592 16.0092 13.6349V7.92766C16.0092 7.53792 15.802 7.17758 15.4651 6.98155L4.11307 0.375392C2.28871 -0.686114 0 0.629812 0 2.74053V23.3218C0 24.6301 0.879381 25.6332 1.98246 25.9539ZM21.7964 10.666C23.6101 11.7211 23.6101 14.3412 21.7964 15.3963L18.9514 17.0517C18.8602 17.1048 18.7458 17.039 18.7458 16.9334V9.12889C18.7458 9.02335 18.8602 8.95755 18.9514 9.01062L21.7964 10.666ZM16.4479 18.0377C16.6275 18.1443 16.6264 18.4046 16.4459 18.5096L6.70623 24.1774C6.52379 24.2835 6.29492 24.1519 6.29492 23.9409V12.9739C6.29492 12.5497 6.75672 12.2867 7.12156 12.5033L16.4479 18.0377Z" fill="url(#paint0_linear_2_1761)"/>
<defs>
<linearGradient id="paint0_linear_2_1761" x1="22.2467" y1="-2.09363" x2="-2.21976" y2="21.3499" gradientUnits="userSpaceOnUse">
<stop stop-color="#FDA195"/>
<stop offset="0.46657" stop-color="#FE7DEC"/>
<stop offset="1" stop-color="#5754DA"/>
</linearGradient>
</defs>
</svg>
